<svg width="36" height="36" viewBox="0 0 36 36" fill="none" xmlns="http://www.w3.org/2000/svg">
<g id="vuesax/outline/close-circle">
<g id="close-circle">
<path id="Vector" d="M18 34.125C9.105 34.125 1.875 26.895 1.875 18C1.875 9.105 9.105 1.875 18 1.875C26.895 1.875 34.125 9.105 34.125 18C34.125 26.895 26.895 34.125 18 34.125ZM18 4.125C10.35 4.125 4.125 10.35 4.125 18C4.125 25.65 10.35 31.875 18 31.875C25.65 31.875 31.875 25.65 31.875 18C31.875 10.35 25.65 4.125 18 4.125Z" fill="#171B20" fill-opacity="0.64"/>
<path id="Vector_2" d="M13.755 23.3691C13.47 23.3691 13.185 23.2641 12.96 23.0391C12.525 22.6041 12.525 21.8841 12.96 21.4491L21.45 12.9591C21.885 12.5241 22.605 12.5241 23.04 12.9591C23.475 13.3941 23.475 14.1141 23.04 14.5491L14.55 23.0391C14.34 23.2641 14.04 23.3691 13.755 23.3691Z" fill="#171B20" fill-opacity="0.64"/>
<path id="Vector_3" d="M22.245 23.3691C21.96 23.3691 21.675 23.2641 21.45 23.0391L12.96 14.5491C12.525 14.1141 12.525 13.3941 12.96 12.9591C13.395 12.5241 14.115 12.5241 14.55 12.9591L23.04 21.4491C23.475 21.8841 23.475 22.6041 23.04 23.0391C22.815 23.2641 22.53 23.3691 22.245 23.3691Z" fill="#171B20" fill-opacity="0.64"/>
</g>
</g>
</svg>
