<svg width="56" height="56" viewBox="0 0 56 56" fill="none" xmlns="http://www.w3.org/2000/svg">
<rect x="0.5" y="0.5" width="55" height="55" rx="27.5" stroke="#171B20" stroke-opacity="0.24"/>
<g clip-path="url(#clip0_1369_6167)">
<path d="M36.5195 18H19.4766C18.6602 18 18 18.6445 18 19.4414V36.5547C18 37.3516 18.6602 38 19.4766 38H36.5195C37.3359 38 38 37.3516 38 36.5586V19.4414C38 18.6445 37.3359 18 36.5195 18ZM23.9336 35.043H20.9648V25.4961H23.9336V35.043ZM22.4492 24.1953C21.4961 24.1953 20.7266 23.4258 20.7266 22.4766C20.7266 21.5273 21.4961 20.7578 22.4492 20.7578C23.3984 20.7578 24.168 21.5273 24.168 22.4766C24.168 23.4219 23.3984 24.1953 22.4492 24.1953ZM35.043 35.043H32.0781V30.4023C32.0781 29.2969 32.0586 27.8711 30.5352 27.8711C28.9922 27.8711 28.7578 29.0781 28.7578 30.3242V35.043H25.7969V25.4961H28.6406V26.8008H28.6797C29.0742 26.0508 30.043 25.2578 31.4844 25.2578C34.4883 25.2578 35.043 27.2344 35.043 29.8047V35.043Z" fill="#171B20" fill-opacity="0.8"/>
</g>
<defs>
<clipPath id="clip0_1369_6167">
<rect width="20" height="20" fill="white" transform="translate(18 18)"/>
</clipPath>
</defs>
</svg>
