<svg width="56" height="56" viewBox="0 0 56 56" fill="none" xmlns="http://www.w3.org/2000/svg">
<rect x="0.5" y="0.5" width="55" height="55" rx="27.5" stroke="#171B20" stroke-opacity="0.24"/>
<g clip-path="url(#clip0_1369_6163)">
<path d="M28 19.8008C30.6719 19.8008 30.9883 19.8125 32.0391 19.8594C33.0156 19.9023 33.543 20.0664 33.8945 20.2031C34.3594 20.3828 34.6953 20.6016 35.043 20.9492C35.3945 21.3008 35.6094 21.6328 35.7891 22.0977C35.9258 22.4492 36.0898 22.9805 36.1328 23.9531C36.1797 25.0078 36.1914 25.3242 36.1914 27.9922C36.1914 30.6641 36.1797 30.9805 36.1328 32.0313C36.0898 33.0078 35.9258 33.5352 35.7891 33.8867C35.6094 34.3516 35.3906 34.6875 35.043 35.0352C34.6914 35.3867 34.3594 35.6016 33.8945 35.7813C33.543 35.918 33.0117 36.082 32.0391 36.125C30.9844 36.1719 30.668 36.1836 28 36.1836C25.3281 36.1836 25.0117 36.1719 23.9609 36.125C22.9844 36.082 22.457 35.918 22.1055 35.7813C21.6406 35.6016 21.3047 35.3828 20.957 35.0352C20.6055 34.6836 20.3906 34.3516 20.2109 33.8867C20.0742 33.5352 19.9102 33.0039 19.8672 32.0313C19.8203 30.9766 19.8086 30.6602 19.8086 27.9922C19.8086 25.3203 19.8203 25.0039 19.8672 23.9531C19.9102 22.9766 20.0742 22.4492 20.2109 22.0977C20.3906 21.6328 20.6094 21.2969 20.957 20.9492C21.3086 20.5977 21.6406 20.3828 22.1055 20.2031C22.457 20.0664 22.9883 19.9023 23.9609 19.8594C25.0117 19.8125 25.3281 19.8008 28 19.8008ZM28 18C25.2852 18 24.9453 18.0117 23.8789 18.0586C22.8164 18.1055 22.0859 18.2773 21.4531 18.5234C20.793 18.7812 20.2344 19.1211 19.6797 19.6797C19.1211 20.2344 18.7813 20.793 18.5234 21.4492C18.2773 22.0859 18.1055 22.8125 18.0586 23.875C18.0117 24.9453 18 25.2852 18 28C18 30.7148 18.0117 31.0547 18.0586 32.1211C18.1055 33.1836 18.2773 33.9141 18.5234 34.5469C18.7813 35.207 19.1211 35.7656 19.6797 36.3203C20.2344 36.875 20.793 37.2188 21.4492 37.4727C22.0859 37.7188 22.8125 37.8906 23.875 37.9375C24.9414 37.9844 25.2813 37.9961 27.9961 37.9961C30.7109 37.9961 31.0508 37.9844 32.1172 37.9375C33.1797 37.8906 33.9102 37.7188 34.543 37.4727C35.1992 37.2188 35.7578 36.875 36.3125 36.3203C36.8672 35.7656 37.2109 35.207 37.4648 34.5508C37.7109 33.9141 37.8828 33.1875 37.9297 32.125C37.9766 31.0586 37.9883 30.7188 37.9883 28.0039C37.9883 25.2891 37.9766 24.9492 37.9297 23.8828C37.8828 22.8203 37.7109 22.0898 37.4648 21.457C37.2188 20.793 36.8789 20.2344 36.3203 19.6797C35.7656 19.125 35.207 18.7813 34.5508 18.5273C33.9141 18.2812 33.1875 18.1094 32.125 18.0625C31.0547 18.0117 30.7148 18 28 18Z" fill="#171B20" fill-opacity="0.8"/>
<path d="M28 22.8633C25.1641 22.8633 22.8633 25.1641 22.8633 28C22.8633 30.8359 25.1641 33.1367 28 33.1367C30.8359 33.1367 33.1367 30.8359 33.1367 28C33.1367 25.1641 30.8359 22.8633 28 22.8633ZM28 31.332C26.1602 31.332 24.668 29.8398 24.668 28C24.668 26.1602 26.1602 24.668 28 24.668C29.8398 24.668 31.332 26.1602 31.332 28C31.332 29.8398 29.8398 31.332 28 31.332Z" fill="#171B20" fill-opacity="0.8"/>
<path d="M34.5391 22.6602C34.5391 23.3242 34 23.8594 33.3398 23.8594C32.6758 23.8594 32.1406 23.3203 32.1406 22.6602C32.1406 21.9961 32.6797 21.4609 33.3398 21.4609C34 21.4609 34.5391 22 34.5391 22.6602Z" fill="#171B20" fill-opacity="0.8"/>
</g>
<defs>
<clipPath id="clip0_1369_6163">
<rect width="20" height="20" fill="white" transform="translate(18 18)"/>
</clipPath>
</defs>
</svg>
