<svg width="112" height="112" viewBox="0 0 112 112" fill="none" xmlns="http://www.w3.org/2000/svg">
<path d="M103.266 25.9852C119.845 52.0961 112.124 86.6981 86.0217 103.279C84.3855 104.319 82.6957 105.274 80.9595 106.137C81.6546 100.827 82.1227 95.4852 82.4226 90.227C82.4604 84.7015 82.1005 79.1786 81.0143 74.6299C77.7347 60.9041 70.2823 56.4323 64.5055 53.1798C58.7288 49.9274 54.4542 49.1762 55.0828 51.5549C55.6044 53.575 61.8062 55.3368 66.2894 61.3475C69.2404 65.3055 70.0437 71.1596 67.5465 72.0073C65.537 72.6959 64.2174 71.4061 62.0697 66.6161C59.9454 61.9017 55.1375 63.378 55.0058 63.4249C55.1245 63.5045 57.1483 64.8986 58.6049 71.3396C60.1032 77.9905 64.4195 75.3497 69.1674 83.207C70.9252 86.1217 71.0751 89.768 70.5588 93.2004H70.6044C70.3045 98.216 67.7903 104.807 64.5812 111.346C43.2685 114.639 21.0442 105.394 8.74092 86.0226C-7.36489 60.6863 -0.554052 27.3272 23.7461 10.2342C24.093 15.3906 24.659 20.5366 25.3618 25.5679C26.3985 30.993 27.8212 36.3464 29.7681 40.5926C35.657 53.4185 43.8266 56.3632 50.1315 58.4315C56.4363 60.4998 60.7709 60.4033 59.6911 58.1915C58.7783 56.3162 52.3613 55.7946 46.7932 50.7581C43.1276 47.4483 41.212 41.8615 43.4927 40.5443C45.3327 39.4815 46.8753 40.4921 49.9176 44.7683C52.9598 49.0445 57.4743 46.5276 57.4743 46.5276C57.4743 46.5276 55.1623 45.6864 52.3978 39.4619C49.6333 33.2374 45.9169 36.6568 39.732 29.865C37.4461 27.3493 36.588 23.8008 36.4276 20.3358H36.3807C35.7561 15.7075 36.7341 9.36563 38.3876 2.83334C62.1896 -5.06827 89.2061 3.84403 103.266 25.9852Z" fill="#112DA5"/>
</svg>
