<svg width="56" height="56" viewBox="0 0 56 56" fill="none" xmlns="http://www.w3.org/2000/svg">
<rect x="0.5" y="0.5" width="55" height="55" rx="27.5" stroke="#171B20" stroke-opacity="0.24"/>
<path d="M33 37.25H23C19.35 37.25 17.25 35.15 17.25 31.5V24.5C17.25 20.85 19.35 18.75 23 18.75H33C36.65 18.75 38.75 20.85 38.75 24.5V31.5C38.75 35.15 36.65 37.25 33 37.25ZM23 20.25C20.14 20.25 18.75 21.64 18.75 24.5V31.5C18.75 34.36 20.14 35.75 23 35.75H33C35.86 35.75 37.25 34.36 37.25 31.5V24.5C37.25 21.64 35.86 20.25 33 20.25H23Z" fill="#171B20" fill-opacity="0.8"/>
<path d="M27.9998 28.868C27.1598 28.868 26.3098 28.608 25.6598 28.078L22.5298 25.578C22.2098 25.318 22.1498 24.848 22.4098 24.528C22.6698 24.208 23.1398 24.148 23.4598 24.408L26.5898 26.908C27.3498 27.518 28.6398 27.518 29.3998 26.908L32.5298 24.408C32.8498 24.148 33.3298 24.198 33.5798 24.528C33.8398 24.848 33.7898 25.328 33.4598 25.578L30.3298 28.078C29.6898 28.608 28.8398 28.868 27.9998 28.868Z" fill="#171B20" fill-opacity="0.8"/>
</svg>
