<svg width="56" height="56" viewBox="0 0 56 56" fill="none" xmlns="http://www.w3.org/2000/svg">
<rect x="0.5" y="0.5" width="55" height="55" rx="27.5" stroke="#171B20" stroke-opacity="0.24"/>
<path d="M32.2271 18H28.8565V31.6232C28.8565 33.2464 27.5601 34.5797 25.9468 34.5797C24.3336 34.5797 23.0372 33.2464 23.0372 31.6232C23.0372 30.029 24.3048 28.7246 25.8604 28.6667V25.2464C22.4322 25.3043 19.6666 28.1159 19.6666 31.6232C19.6666 35.1594 22.4898 38 25.9757 38C29.4614 38 32.2847 35.1304 32.2847 31.6232V24.6377C33.5522 25.5652 35.1079 26.1159 36.75 26.1449V22.7246C34.2148 22.6377 32.2271 20.5507 32.2271 18Z" fill="#171B20" fill-opacity="0.8"/>
</svg>
