<svg width="56" height="56" viewBox="0 0 56 56" fill="none" xmlns="http://www.w3.org/2000/svg">
<rect x="0.5" y="0.5" width="55" height="55" rx="27.5" stroke="#171B20" stroke-opacity="0.24"/>
<path d="M18 38L19.4058 32.8642C18.5383 31.3608 18.0825 29.6567 18.0833 27.9092C18.0858 22.4458 22.5317 18 27.9942 18C30.645 18.0008 33.1333 19.0333 35.005 20.9067C36.8758 22.78 37.9058 25.27 37.905 27.9183C37.9025 33.3825 33.4567 37.8283 27.9942 37.8283C26.3358 37.8275 24.7017 37.4117 23.2542 36.6217L18 38ZM23.4975 34.8275C24.8942 35.6567 26.2275 36.1533 27.9908 36.1542C32.5308 36.1542 36.2292 32.4592 36.2317 27.9167C36.2333 23.365 32.5525 19.675 27.9975 19.6733C23.4542 19.6733 19.7583 23.3683 19.7567 27.91C19.7558 29.7642 20.2992 31.1525 21.2117 32.605L20.3792 35.645L23.4975 34.8275ZM32.9867 30.2742C32.925 30.1708 32.76 30.1092 32.5117 29.985C32.2642 29.8608 31.0467 29.2617 30.8192 29.1792C30.5925 29.0967 30.4275 29.055 30.2617 29.3033C30.0967 29.5508 29.6217 30.1092 29.4775 30.2742C29.3333 30.4392 29.1883 30.46 28.9408 30.3358C28.6933 30.2117 27.895 29.9508 26.9492 29.1067C26.2133 28.45 25.7158 27.6392 25.5717 27.3908C25.4275 27.1433 25.5567 27.0092 25.68 26.8858C25.7917 26.775 25.9275 26.5967 26.0517 26.4517C26.1775 26.3083 26.2183 26.205 26.3017 26.0392C26.3842 25.8742 26.3433 25.7292 26.2808 25.605C26.2183 25.4817 25.7233 24.2625 25.5175 23.7667C25.3158 23.2842 25.1117 23.3492 24.96 23.3417L24.485 23.3333C24.32 23.3333 24.0517 23.395 23.825 23.6433C23.5983 23.8917 22.9583 24.49 22.9583 25.7092C22.9583 26.9283 23.8458 28.1058 23.9692 28.2708C24.0933 28.4358 25.715 30.9375 28.1992 32.01C28.79 32.265 29.2517 32.4175 29.6108 32.5317C30.2042 32.72 30.7442 32.6933 31.1708 32.63C31.6467 32.5592 32.6358 32.0308 32.8425 31.4525C33.0492 30.8733 33.0492 30.3775 32.9867 30.2742Z" fill="#171B20" fill-opacity="0.8"/>
</svg>
