<svg width="56" height="56" viewBox="0 0 56 56" fill="none" xmlns="http://www.w3.org/2000/svg">
<rect x="0.5" y="0.5" width="55" height="55" rx="27.5" stroke="#171B20" stroke-opacity="0.24"/>
<path d="M33.45 38.75C32.32 38.75 31.13 38.48 29.9 37.96C28.7 37.45 27.49 36.75 26.31 35.9C25.14 35.04 24.01 34.08 22.94 33.03C21.88 31.96 20.92 30.83 20.07 29.67C19.21 28.47 18.52 27.27 18.03 26.11C17.51 24.87 17.25 23.67 17.25 22.54C17.25 21.76 17.39 21.02 17.66 20.33C17.94 19.62 18.39 18.96 19 18.39C19.77 17.63 20.65 17.25 21.59 17.25C21.98 17.25 22.38 17.34 22.72 17.5C23.11 17.68 23.44 17.95 23.68 18.31L26 21.58C26.21 21.87 26.37 22.15 26.48 22.43C26.61 22.73 26.68 23.03 26.68 23.32C26.68 23.7 26.57 24.07 26.36 24.42C26.21 24.69 25.98 24.98 25.69 25.27L25.01 25.98C25.02 26.01 25.03 26.03 25.04 26.05C25.16 26.26 25.4 26.62 25.86 27.16C26.35 27.72 26.81 28.23 27.27 28.7C27.86 29.28 28.35 29.74 28.81 30.12C29.38 30.6 29.75 30.84 29.97 30.95L29.95 31L30.68 30.28C30.99 29.97 31.29 29.74 31.58 29.59C32.13 29.25 32.83 29.19 33.53 29.48C33.79 29.59 34.07 29.74 34.37 29.95L37.69 32.31C38.06 32.56 38.33 32.88 38.49 33.26C38.64 33.64 38.71 33.99 38.71 34.34C38.71 34.82 38.6 35.3 38.39 35.75C38.18 36.2 37.92 36.59 37.59 36.95C37.02 37.58 36.4 38.03 35.68 38.32C34.99 38.6 34.24 38.75 33.45 38.75ZM21.59 18.75C21.04 18.75 20.53 18.99 20.04 19.47C19.58 19.9 19.26 20.37 19.06 20.88C18.85 21.4 18.75 21.95 18.75 22.54C18.75 23.47 18.97 24.48 19.41 25.52C19.86 26.58 20.49 27.68 21.29 28.78C22.09 29.88 23 30.95 24 31.96C25 32.95 26.08 33.87 27.19 34.68C28.27 35.47 29.38 36.11 30.48 36.57C32.19 37.3 33.79 37.47 35.11 36.92C35.62 36.71 36.07 36.39 36.48 35.93C36.71 35.68 36.89 35.41 37.04 35.09C37.16 34.84 37.22 34.58 37.22 34.32C37.22 34.16 37.19 34 37.11 33.82C37.08 33.76 37.02 33.65 36.83 33.52L33.51 31.16C33.31 31.02 33.13 30.92 32.96 30.85C32.74 30.76 32.65 30.67 32.31 30.88C32.11 30.98 31.93 31.13 31.73 31.33L30.97 32.08C30.58 32.46 29.98 32.55 29.52 32.38L29.25 32.26C28.84 32.04 28.36 31.7 27.83 31.25C27.35 30.84 26.83 30.36 26.2 29.74C25.71 29.24 25.22 28.71 24.71 28.12C24.24 27.57 23.9 27.1 23.69 26.71L23.57 26.41C23.51 26.18 23.49 26.05 23.49 25.91C23.49 25.55 23.62 25.23 23.87 24.98L24.62 24.2C24.82 24 24.97 23.81 25.07 23.64C25.15 23.51 25.18 23.4 25.18 23.3C25.18 23.22 25.15 23.1 25.1 22.98C25.03 22.82 24.92 22.64 24.78 22.45L22.46 19.17C22.36 19.03 22.24 18.93 22.09 18.86C21.93 18.79 21.76 18.75 21.59 18.75ZM29.95 31.01L29.79 31.69L30.06 30.99C30.01 30.98 29.97 30.99 29.95 31.01Z" fill="#171B20" fill-opacity="0.8"/>
</svg>
