<svg width="32" height="32" viewBox="0 0 32 32" fill="none" xmlns="http://www.w3.org/2000/svg">
<path d="M29.5045 7.42435C34.2414 14.8846 32.0354 24.7709 24.5776 29.5082C24.1101 29.8055 23.6274 30.0781 23.1313 30.3249C23.3299 28.8077 23.4636 27.2815 23.5493 25.7792C23.5601 24.2004 23.4573 22.6225 23.1469 21.3228C22.2099 17.4012 20.0807 16.1235 18.4302 15.1942C16.7797 14.265 15.5584 14.0504 15.7379 14.73C15.887 15.3071 17.6589 15.8105 18.9398 17.5279C19.783 18.6587 20.0125 20.3313 19.299 20.5735C18.7249 20.7702 18.3478 20.4017 17.7342 19.0332C17.1273 17.6862 15.7536 18.108 15.716 18.1214C15.7499 18.1441 16.3281 18.5425 16.7443 20.3827C17.1723 22.283 18.4056 21.5285 19.7621 23.7734C20.2643 24.6062 20.3072 25.648 20.1596 26.6287H20.1727C20.087 28.0617 19.3687 29.9449 18.4518 31.8131C12.3624 32.7539 6.01264 30.1125 2.49741 24.5779C-2.10425 17.3389 -0.158304 7.80776 6.78461 2.92405C6.88372 4.39732 7.04541 5.86761 7.24623 7.30512C7.54243 8.85514 7.94891 10.3847 8.50516 11.5979C10.1877 15.2624 12.5219 16.1038 14.3233 16.6947C16.1247 17.2857 17.3631 17.2581 17.0546 16.6262C16.7938 16.0904 14.9604 15.9413 13.3695 14.5023C12.3222 13.5567 11.7749 11.9604 12.4265 11.5841C12.9522 11.2804 13.393 11.5692 14.2622 12.791C15.1314 14.0127 16.4212 13.2936 16.4212 13.2936C16.4212 13.2936 15.7607 13.0533 14.9708 11.2748C14.181 9.4964 13.1191 10.4734 11.352 8.53284C10.6989 7.81409 10.4537 6.80024 10.4079 5.81023H10.3945C10.216 4.48786 10.4954 2.67589 10.9679 0.809528C17.7685 -1.44808 25.4874 1.09829 29.5045 7.42435Z" fill="#112DA5"/>
</svg>
