<svg width="186" height="32" viewBox="0 0 186 32" fill="none" xmlns="http://www.w3.org/2000/svg">
<path d="M29.5045 7.42435C34.2414 14.8846 32.0354 24.7709 24.5776 29.5082C24.1101 29.8055 23.6274 30.0781 23.1313 30.3249C23.3299 28.8077 23.4636 27.2815 23.5493 25.7792C23.5601 24.2004 23.4573 22.6225 23.1469 21.3228C22.2099 17.4012 20.0807 16.1235 18.4302 15.1942C16.7797 14.265 15.5584 14.0504 15.7379 14.73C15.887 15.3071 17.6589 15.8105 18.9398 17.5279C19.783 18.6587 20.0125 20.3313 19.299 20.5735C18.7249 20.7702 18.3478 20.4017 17.7342 19.0332C17.1273 17.6862 15.7536 18.108 15.716 18.1214C15.7499 18.1441 16.3281 18.5425 16.7443 20.3827C17.1723 22.283 18.4056 21.5285 19.7621 23.7734C20.2643 24.6062 20.3072 25.648 20.1596 26.6287H20.1727C20.087 28.0617 19.3687 29.9449 18.4518 31.8131C12.3624 32.7539 6.01264 30.1125 2.49741 24.5779C-2.10425 17.3389 -0.158301 7.80776 6.78461 2.92405C6.88372 4.39732 7.04541 5.86761 7.24623 7.30512C7.54243 8.85514 7.94891 10.3847 8.50516 11.5979C10.1877 15.2624 12.5219 16.1038 14.3233 16.6947C16.1247 17.2857 17.3631 17.2581 17.0546 16.6262C16.7938 16.0904 14.9604 15.9413 13.3695 14.5023C12.3222 13.5567 11.7749 11.9604 12.4265 11.5841C12.9522 11.2804 13.393 11.5692 14.2622 12.791C15.1314 14.0127 16.4212 13.2936 16.4212 13.2936C16.4212 13.2936 15.7607 13.0533 14.9708 11.2748C14.181 9.4964 13.1191 10.4734 11.352 8.53284C10.6989 7.81409 10.4537 6.80024 10.4079 5.81023H10.3945C10.216 4.48786 10.4955 2.67589 10.9679 0.809526C17.7685 -1.44808 25.4874 1.09829 29.5045 7.42435Z" fill="#112DA5"/>
<path d="M51.5841 24.836C50.2081 24.836 48.8801 24.668 47.6001 24.332C46.3361 23.98 45.3041 23.532 44.5041 22.988L46.0641 19.484C46.8161 19.964 47.6801 20.364 48.6561 20.684C49.6481 20.988 50.6321 21.14 51.6081 21.14C52.2641 21.14 52.7921 21.084 53.1921 20.972C53.5921 20.844 53.8801 20.684 54.0561 20.492C54.2481 20.284 54.3441 20.044 54.3441 19.772C54.3441 19.388 54.1681 19.084 53.8161 18.86C53.4641 18.636 53.0081 18.452 52.4481 18.308C51.8881 18.164 51.2641 18.02 50.5761 17.876C49.9041 17.732 49.2241 17.548 48.5361 17.324C47.8641 17.1 47.2481 16.812 46.6881 16.46C46.1281 16.092 45.6721 15.62 45.3201 15.044C44.9681 14.452 44.7921 13.708 44.7921 12.812C44.7921 11.804 45.0641 10.892 45.6081 10.076C46.1681 9.26 47.0001 8.604 48.1041 8.108C49.2081 7.612 50.5841 7.364 52.2321 7.364C53.3361 7.364 54.4161 7.492 55.4721 7.748C56.5441 7.988 57.4961 8.348 58.3281 8.828L56.8641 12.356C56.0641 11.924 55.2721 11.604 54.4881 11.396C53.7041 11.172 52.9441 11.06 52.2081 11.06C51.5521 11.06 51.0241 11.132 50.6241 11.276C50.2241 11.404 49.9361 11.58 49.7601 11.804C49.5841 12.028 49.4961 12.284 49.4961 12.572C49.4961 12.94 49.6641 13.236 50.0001 13.46C50.3521 13.668 50.8081 13.844 51.3681 13.988C51.9441 14.116 52.5681 14.252 53.2401 14.396C53.9281 14.54 54.6081 14.724 55.2801 14.948C55.9681 15.156 56.5921 15.444 57.1521 15.812C57.7121 16.164 58.1601 16.636 58.4961 17.228C58.8481 17.804 59.0241 18.532 59.0241 19.412C59.0241 20.388 58.7441 21.292 58.1841 22.124C57.6401 22.94 56.8161 23.596 55.7121 24.092C54.6241 24.588 53.2481 24.836 51.5841 24.836ZM68.9472 24.5V22.076L68.6352 21.476V17.012C68.6352 16.292 68.4112 15.74 67.9632 15.356C67.5312 14.956 66.8352 14.756 65.8752 14.756C65.2512 14.756 64.6192 14.86 63.9792 15.068C63.3392 15.26 62.7952 15.532 62.3472 15.884L60.8112 12.788C61.5472 12.308 62.4272 11.94 63.4512 11.684C64.4912 11.412 65.5232 11.276 66.5472 11.276C68.6592 11.276 70.2912 11.764 71.4432 12.74C72.6112 13.7 73.1952 15.212 73.1952 17.276V24.5H68.9472ZM65.1072 24.716C64.0672 24.716 63.1872 24.54 62.4672 24.188C61.7472 23.836 61.1952 23.356 60.8112 22.748C60.4432 22.14 60.2592 21.46 60.2592 20.708C60.2592 19.908 60.4592 19.22 60.8592 18.644C61.2752 18.052 61.9072 17.604 62.7552 17.3C63.6032 16.98 64.6992 16.82 66.0432 16.82H69.1152V19.196H66.6672C65.9312 19.196 65.4112 19.316 65.1072 19.556C64.8192 19.796 64.6752 20.116 64.6752 20.516C64.6752 20.916 64.8272 21.236 65.1312 21.476C65.4352 21.716 65.8512 21.836 66.3792 21.836C66.8752 21.836 67.3232 21.716 67.7232 21.476C68.1392 21.22 68.4432 20.836 68.6352 20.324L69.2592 22.004C69.0192 22.9 68.5472 23.58 67.8432 24.044C67.1552 24.492 66.2432 24.716 65.1072 24.716ZM76.6015 24.5V11.636C76.6015 10.068 77.0655 8.82 77.9935 7.892C78.9375 6.948 80.2815 6.476 82.0255 6.476C82.5855 6.476 83.1375 6.532 83.6815 6.644C84.2255 6.756 84.6815 6.924 85.0495 7.148L83.9215 10.364C83.7295 10.252 83.5135 10.164 83.2735 10.1C83.0335 10.02 82.7935 9.98 82.5535 9.98C82.0735 9.98 81.6975 10.124 81.4255 10.412C81.1695 10.684 81.0415 11.108 81.0415 11.684V12.62L81.1615 14.516V24.5H76.6015ZM74.7055 15.38V11.972H84.1375V15.38H74.7055ZM92.4989 24.716C90.9629 24.716 89.6189 24.428 88.4669 23.852C87.3309 23.26 86.4429 22.46 85.8029 21.452C85.1789 20.428 84.8669 19.268 84.8669 17.972C84.8669 16.676 85.1709 15.524 85.7789 14.516C86.4029 13.492 87.2589 12.7 88.3469 12.14C89.4349 11.564 90.6589 11.276 92.0189 11.276C93.2989 11.276 94.4669 11.54 95.5229 12.068C96.5789 12.58 97.4189 13.34 98.0429 14.348C98.6669 15.356 98.9789 16.58 98.9789 18.02C98.9789 18.18 98.9709 18.364 98.9549 18.572C98.9389 18.78 98.9229 18.972 98.9069 19.148H88.6109V16.748H96.4829L94.7549 17.42C94.7709 16.828 94.6589 16.316 94.4189 15.884C94.1949 15.452 93.8749 15.116 93.4589 14.876C93.0589 14.636 92.5869 14.516 92.0429 14.516C91.4989 14.516 91.0189 14.636 90.6029 14.876C90.2029 15.116 89.8909 15.46 89.6669 15.908C89.4429 16.34 89.3309 16.852 89.3309 17.444V18.14C89.3309 18.78 89.4589 19.332 89.7149 19.796C89.9869 20.26 90.3709 20.62 90.8669 20.876C91.3629 21.116 91.9549 21.236 92.6429 21.236C93.2829 21.236 93.8269 21.148 94.2749 20.972C94.7389 20.78 95.1949 20.492 95.6429 20.108L98.0429 22.604C97.4189 23.292 96.6509 23.82 95.7389 24.188C94.8269 24.54 93.7469 24.716 92.4989 24.716ZM101.297 24.5V7.7H109.889C112.097 7.7 113.745 8.108 114.833 8.924C115.921 9.724 116.465 10.78 116.465 12.092C116.465 12.956 116.233 13.716 115.769 14.372C115.321 15.012 114.681 15.524 113.849 15.908C113.033 16.276 112.057 16.46 110.921 16.46L111.401 15.308C112.585 15.308 113.617 15.492 114.497 15.86C115.377 16.212 116.057 16.732 116.537 17.42C117.033 18.092 117.281 18.916 117.281 19.892C117.281 21.348 116.689 22.484 115.505 23.3C114.337 24.1 112.625 24.5 110.369 24.5H101.297ZM106.001 21.068H109.985C110.801 21.068 111.417 20.932 111.833 20.66C112.265 20.372 112.481 19.94 112.481 19.364C112.481 18.788 112.265 18.364 111.833 18.092C111.417 17.804 110.801 17.66 109.985 17.66H105.665V14.372H109.265C110.065 14.372 110.665 14.236 111.065 13.964C111.465 13.692 111.665 13.284 111.665 12.74C111.665 12.196 111.465 11.796 111.065 11.54C110.665 11.268 110.065 11.132 109.265 11.132H106.001V21.068ZM119.527 24.5V11.492H123.871V15.284L123.223 14.204C123.607 13.228 124.231 12.5 125.095 12.02C125.959 11.524 127.007 11.276 128.239 11.276V15.38C128.031 15.348 127.847 15.332 127.687 15.332C127.543 15.316 127.383 15.308 127.207 15.308C126.279 15.308 125.527 15.564 124.951 16.076C124.375 16.572 124.087 17.388 124.087 18.524V24.5H119.527ZM130.12 24.5V11.492H134.68V24.5H130.12ZM132.4 10.052C131.568 10.052 130.896 9.82 130.384 9.356C129.872 8.892 129.616 8.316 129.616 7.628C129.616 6.94 129.872 6.364 130.384 5.9C130.896 5.436 131.568 5.204 132.4 5.204C133.232 5.204 133.904 5.428 134.416 5.876C134.928 6.308 135.184 6.868 135.184 7.556C135.184 8.276 134.928 8.876 134.416 9.356C133.92 9.82 133.248 10.052 132.4 10.052ZM143.308 24.716C142.124 24.716 141.044 24.444 140.068 23.9C139.108 23.34 138.34 22.564 137.764 21.572C137.188 20.564 136.9 19.364 136.9 17.972C136.9 16.596 137.188 15.412 137.764 14.42C138.34 13.412 139.108 12.636 140.068 12.092C141.044 11.548 142.124 11.276 143.308 11.276C144.428 11.276 145.372 11.516 146.14 11.996C146.924 12.476 147.516 13.212 147.916 14.204C148.316 15.196 148.516 16.452 148.516 17.972C148.516 19.524 148.324 20.796 147.94 21.788C147.556 22.78 146.98 23.516 146.212 23.996C145.444 24.476 144.476 24.716 143.308 24.716ZM144.268 21.092C144.78 21.092 145.236 20.972 145.636 20.732C146.052 20.492 146.38 20.14 146.62 19.676C146.86 19.196 146.98 18.628 146.98 17.972C146.98 17.316 146.86 16.764 146.62 16.316C146.38 15.852 146.052 15.5 145.636 15.26C145.236 15.02 144.78 14.9 144.268 14.9C143.74 14.9 143.268 15.02 142.852 15.26C142.452 15.5 142.132 15.852 141.892 16.316C141.652 16.764 141.532 17.316 141.532 17.972C141.532 18.628 141.652 19.196 141.892 19.676C142.132 20.14 142.452 20.492 142.852 20.732C143.268 20.972 143.74 21.092 144.268 21.092ZM147.124 24.5V22.268L147.148 17.972L146.908 13.676V6.692H151.468V24.5H147.124ZM160.762 29.372C159.514 29.372 158.322 29.228 157.186 28.94C156.066 28.652 155.106 28.228 154.306 27.668L155.962 24.476C156.506 24.908 157.178 25.244 157.978 25.484C158.794 25.74 159.586 25.868 160.354 25.868C161.586 25.868 162.474 25.596 163.018 25.052C163.562 24.524 163.834 23.748 163.834 22.724V21.188L164.074 17.54L164.05 13.868V11.492H168.394V22.124C168.394 24.588 167.73 26.412 166.402 27.596C165.074 28.78 163.194 29.372 160.762 29.372ZM159.97 23.828C158.818 23.828 157.754 23.572 156.778 23.06C155.818 22.532 155.042 21.804 154.45 20.876C153.874 19.932 153.586 18.82 153.586 17.54C153.586 16.26 153.874 15.156 154.45 14.228C155.042 13.284 155.818 12.556 156.778 12.044C157.754 11.532 158.818 11.276 159.97 11.276C161.074 11.276 162.018 11.5 162.802 11.948C163.586 12.38 164.178 13.06 164.578 13.988C164.994 14.916 165.202 16.1 165.202 17.54C165.202 18.98 164.994 20.164 164.578 21.092C164.178 22.02 163.586 22.708 162.802 23.156C162.018 23.604 161.074 23.828 159.97 23.828ZM161.05 20.204C161.594 20.204 162.074 20.092 162.49 19.868C162.922 19.644 163.258 19.332 163.498 18.932C163.754 18.532 163.882 18.068 163.882 17.54C163.882 17.012 163.754 16.548 163.498 16.148C163.258 15.748 162.922 15.444 162.49 15.236C162.074 15.012 161.594 14.9 161.05 14.9C160.506 14.9 160.018 15.012 159.586 15.236C159.154 15.444 158.81 15.748 158.554 16.148C158.314 16.548 158.194 17.012 158.194 17.54C158.194 18.068 158.314 18.532 158.554 18.932C158.81 19.332 159.154 19.644 159.586 19.868C160.018 20.092 160.506 20.204 161.05 20.204ZM178.139 24.716C176.603 24.716 175.259 24.428 174.107 23.852C172.971 23.26 172.083 22.46 171.443 21.452C170.819 20.428 170.507 19.268 170.507 17.972C170.507 16.676 170.811 15.524 171.419 14.516C172.043 13.492 172.899 12.7 173.987 12.14C175.075 11.564 176.299 11.276 177.659 11.276C178.939 11.276 180.107 11.54 181.163 12.068C182.219 12.58 183.059 13.34 183.683 14.348C184.307 15.356 184.619 16.58 184.619 18.02C184.619 18.18 184.611 18.364 184.595 18.572C184.579 18.78 184.563 18.972 184.547 19.148H174.251V16.748H182.123L180.395 17.42C180.411 16.828 180.299 16.316 180.059 15.884C179.835 15.452 179.515 15.116 179.099 14.876C178.699 14.636 178.227 14.516 177.683 14.516C177.139 14.516 176.659 14.636 176.243 14.876C175.843 15.116 175.531 15.46 175.307 15.908C175.083 16.34 174.971 16.852 174.971 17.444V18.14C174.971 18.78 175.099 19.332 175.355 19.796C175.627 20.26 176.011 20.62 176.507 20.876C177.003 21.116 177.595 21.236 178.283 21.236C178.923 21.236 179.467 21.148 179.915 20.972C180.379 20.78 180.835 20.492 181.283 20.108L183.683 22.604C183.059 23.292 182.291 23.82 181.379 24.188C180.467 24.54 179.387 24.716 178.139 24.716Z" fill="#112DA5"/>
</svg>
