<svg width="32" height="32" viewBox="0 0 32 32" fill="none" xmlns="http://www.w3.org/2000/svg">
<path d="M16 2.66797C12.5066 2.66797 9.66663 5.50797 9.66663 9.0013C9.66663 12.428 12.3466 15.2013 15.84 15.3213C15.9466 15.308 16.0533 15.308 16.1333 15.3213C16.16 15.3213 16.1733 15.3213 16.2 15.3213C16.2133 15.3213 16.2133 15.3213 16.2266 15.3213C19.64 15.2013 22.32 12.428 22.3333 9.0013C22.3333 5.50797 19.4933 2.66797 16 2.66797Z" fill="#112DA5"/>
<path d="M22.7733 18.8795C19.0533 16.3995 12.9866 16.3995 9.23995 18.8795C7.54661 19.9995 6.61328 21.5329 6.61328 23.1729C6.61328 24.8129 7.54661 26.3329 9.22661 27.4529C11.0933 28.7062 13.5466 29.3329 15.9999 29.3329C18.4533 29.3329 20.9066 28.7062 22.7733 27.4529C24.4533 26.3195 25.3866 24.7995 25.3866 23.1462C25.3733 21.5195 24.4533 19.9862 22.7733 18.8795ZM19.1066 22.0795L15.7466 25.4395C15.5866 25.5995 15.3733 25.6795 15.1599 25.6795C14.9466 25.6795 14.7333 25.5862 14.5733 25.4395L12.8933 23.7595C12.5733 23.4395 12.5733 22.9062 12.8933 22.5862C13.2133 22.2662 13.7466 22.2662 14.0666 22.5862L15.1599 23.6795L17.9333 20.9062C18.2533 20.5862 18.7866 20.5862 19.1066 20.9062C19.4399 21.2262 19.4399 21.7595 19.1066 22.0795Z" fill="#112DA5"/>
</svg>
