<svg width="32" height="32" viewBox="0 0 32 32" fill="none" xmlns="http://www.w3.org/2000/svg">
<path d="M24.7199 5.49182L17.3866 2.74516C16.6266 2.46516 15.3866 2.46516 14.6266 2.74516L7.29328 5.49182C5.87994 6.02516 4.73328 7.67849 4.73328 9.18516V19.9852C4.73328 21.0652 5.43994 22.4918 6.30661 23.1318L13.6399 28.6118C14.9333 29.5852 17.0533 29.5852 18.3466 28.6118L25.6799 23.1318C26.5466 22.4785 27.2533 21.0652 27.2533 19.9852V9.18516C27.2666 7.67849 26.1199 6.02516 24.7199 5.49182ZM20.6399 12.9585L14.9066 18.6918C14.7066 18.8918 14.4533 18.9852 14.1999 18.9852C13.9466 18.9852 13.6933 18.8918 13.4933 18.6918L11.3599 16.5318C10.9733 16.1452 10.9733 15.5052 11.3599 15.1185C11.7466 14.7318 12.3866 14.7318 12.7733 15.1185L14.2133 16.5585L19.2399 11.5318C19.6266 11.1452 20.2666 11.1452 20.6533 11.5318C21.0399 11.9185 21.0399 12.5718 20.6399 12.9585Z" fill="#112DA5"/>
</svg>
