<svg width="32" height="32" viewBox="0 0 32 32" fill="none" xmlns="http://www.w3.org/2000/svg">
<path d="M11.1866 24.653V11.1063C11.1866 10.573 11.3466 10.053 11.64 9.61298L15.28 4.19964C15.8533 3.33297 17.28 2.71964 18.4933 3.17297C19.8 3.61297 20.6666 5.07964 20.3866 6.38631L19.6933 10.7463C19.64 11.1463 19.7466 11.5063 19.9733 11.7863C20.2 12.0396 20.5333 12.1996 20.8933 12.1996H26.3733C27.4266 12.1996 28.3333 12.6263 28.8666 13.373C29.3733 14.093 29.4666 15.0263 29.1333 15.973L25.8533 25.9596C25.44 27.613 23.64 28.9596 21.8533 28.9596H16.6533C15.76 28.9596 14.5066 28.653 13.9333 28.0796L12.2266 26.7596C11.5733 26.2663 11.1866 25.4796 11.1866 24.653Z" fill="#112DA5"/>
<path d="M6.94663 8.50781H5.57329C3.50663 8.50781 2.66663 9.30781 2.66663 11.2811V24.6945C2.66663 26.6678 3.50663 27.4678 5.57329 27.4678H6.94663C9.01329 27.4678 9.85329 26.6678 9.85329 24.6945V11.2811C9.85329 9.30781 9.01329 8.50781 6.94663 8.50781Z" fill="#112DA5"/>
</svg>
