<svg width="32" height="32" viewBox="0 0 32 32" fill="none" xmlns="http://www.w3.org/2000/svg">
<path d="M28.7467 14.3207L26.9333 12.2141C26.5867 11.8141 26.3067 11.0674 26.3067 10.5341V8.2674C26.3067 6.85406 25.1467 5.69406 23.7333 5.69406H21.4667C20.9467 5.69406 20.1867 5.41406 19.7867 5.0674L17.68 3.25406C16.76 2.4674 15.2533 2.4674 14.32 3.25406L12.2267 5.08073C11.8267 5.41406 11.0667 5.69406 10.5467 5.69406H8.24001C6.82667 5.69406 5.66667 6.85406 5.66667 8.2674V10.5474C5.66667 11.0674 5.38667 11.8141 5.05334 12.2141L3.25334 14.3341C2.48001 15.2541 2.48001 16.7474 3.25334 17.6674L5.05334 19.7874C5.38667 20.1874 5.66667 20.9341 5.66667 21.4541V23.7341C5.66667 25.1474 6.82667 26.3074 8.24001 26.3074H10.5467C11.0667 26.3074 11.8267 26.5874 12.2267 26.9341L14.3333 28.7474C15.2533 29.5341 16.76 29.5341 17.6933 28.7474L19.8 26.9341C20.2 26.5874 20.9467 26.3074 21.48 26.3074H23.7467C25.16 26.3074 26.32 25.1474 26.32 23.7341V21.4674C26.32 20.9474 26.6 20.1874 26.9467 19.7874L28.76 17.6807C29.5333 16.7607 29.5333 15.2407 28.7467 14.3207ZM21.5467 13.4807L15.1067 19.9207C14.92 20.1074 14.6667 20.2141 14.4 20.2141C14.1333 20.2141 13.88 20.1074 13.6933 19.9207L10.4667 16.6941C10.08 16.3074 10.08 15.6674 10.4667 15.2807C10.8533 14.8941 11.4933 14.8941 11.88 15.2807L14.4 17.8007L20.1333 12.0674C20.52 11.6807 21.16 11.6807 21.5467 12.0674C21.9333 12.4541 21.9333 13.0941 21.5467 13.4807Z" fill="#112DA5"/>
</svg>
